<?xml version="1.0" encoding="UTF-8"?>
<!DOCTYPE svg PUBLIC "-//W3C//DTD SVG 1.1//EN" "http://www.w3.org/Graphics/SVG/1.1/DTD/svg11.dtd">
<svg xmlns="http://www.w3.org/2000/svg" version="1.1" width="512px" height="512px" style="shape-rendering:geometricPrecision; text-rendering:geometricPrecision; image-rendering:optimizeQuality; fill-rule:evenodd; clip-rule:evenodd" xmlns:xlink="http://www.w3.org/1999/xlink">
<g><path style="opacity:1" fill="#efba5b" d="M 277.5,39.5 C 277.663,41.8568 277.497,44.1902 277,46.5C 274.591,48.6201 272.091,50.6201 269.5,52.5C 266.556,57.9463 262.223,61.7796 256.5,64C 246.092,64.4243 235.758,65.091 225.5,66C 213.768,56.2829 201.101,54.9495 187.5,62C 177.541,69.7616 173.541,79.9283 175.5,92.5C 161.983,93.1837 152.816,99.8504 148,112.5C 147.798,117.989 146.798,123.322 145,128.5C 139.285,133.548 134.285,139.214 130,145.5C 127.012,152.83 126.845,160.164 129.5,167.5C 124.595,166.555 119.595,166.221 114.5,166.5C 99.4522,162.951 91.4522,153.451 90.5,138C 91.0133,123.818 98.0133,114.485 111.5,110C 107.403,88.2428 116.403,75.7428 138.5,72.5C 136.762,55.0945 144.096,43.5945 160.5,38C 166.237,37.2106 171.903,37.5439 177.5,39C 182.903,41.7404 187.737,45.2404 192,49.5C 202.496,43.3213 213.163,42.988 224,48.5C 227.887,33.62 237.554,25.62 253,24.5C 263.843,25.3291 272.01,30.3291 277.5,39.5 Z"/></g>
<g><path style="opacity:0.994" fill="#fcda86" d="M 277.5,39.5 C 279.554,43.1925 281.054,47.1925 282,51.5C 299.017,45.8354 312.017,50.8354 321,66.5C 335.872,54.2926 350.205,54.9593 364,68.5C 370.913,78.6364 371.913,89.303 367,100.5C 364.843,103.656 362.343,106.489 359.5,109C 380.378,108.084 392.044,117.918 394.5,138.5C 393.654,150.199 388.654,159.532 379.5,166.5C 365.938,167.068 356.938,173.735 352.5,186.5C 347.364,171.924 337.031,165.424 321.5,167C 311.318,170.017 304.651,176.517 301.5,186.5C 292.883,167.754 279.216,162.921 260.5,172C 254.649,176.872 251.316,183.038 250.5,190.5C 250.167,190.5 249.833,190.5 249.5,190.5C 247.479,174.819 238.479,166.819 222.5,166.5C 210.037,168.298 202.37,175.298 199.5,187.5C 191.631,167.818 177.964,162.318 158.5,171C 153.694,175.478 150.027,180.644 147.5,186.5C 144.944,176.943 138.944,170.609 129.5,167.5C 126.845,160.164 127.012,152.83 130,145.5C 134.285,139.214 139.285,133.548 145,128.5C 146.798,123.322 147.798,117.989 148,112.5C 152.816,99.8504 161.983,93.1837 175.5,92.5C 173.541,79.9283 177.541,69.7616 187.5,62C 201.101,54.9495 213.768,56.2829 225.5,66C 235.758,65.091 246.092,64.4243 256.5,64C 262.223,61.7796 266.556,57.9463 269.5,52.5C 272.091,50.6201 274.591,48.6201 277,46.5C 277.497,44.1902 277.663,41.8568 277.5,39.5 Z"/></g>
<g><path style="opacity:1" fill="#efba5b" d="M 195.5,87.5 C 204.153,86.9867 207.653,90.9867 206,99.5C 203.667,102.5 201.333,105.5 199,108.5C 198,112.833 197,117.167 196,121.5C 194.438,123.91 192.271,125.244 189.5,125.5C 184.764,124.992 180.097,124.159 175.5,123C 172.684,120.868 171.351,118.035 171.5,114.5C 172.127,108.845 172.627,103.179 173,97.5C 174.167,96.3333 175.333,95.1667 176.5,94C 183.749,94.115 190.082,91.9484 195.5,87.5 Z"/></g>
<g><path style="opacity:1" fill="#efba5b" d="M 287.5,100.5 C 292.182,100.338 296.515,101.505 300.5,104C 319.052,99.541 325.219,106.041 319,123.5C 317.014,125.742 314.514,126.742 311.5,126.5C 306.184,125.557 300.851,125.39 295.5,126C 289.891,128.958 284.891,132.624 280.5,137C 272.907,136.404 269.073,132.237 269,124.5C 272.946,120.554 276.946,116.554 281,112.5C 282.402,108.025 284.569,104.025 287.5,100.5 Z"/></g>
<g><path style="opacity:1" fill="#cec9a7" d="M 114.5,166.5 C 119.595,166.221 124.595,166.555 129.5,167.5C 138.944,170.609 144.944,176.943 147.5,186.5C 148.367,206.918 149.701,227.251 151.5,247.5C 134.09,247.819 116.756,247.485 99.5,246.5C 98.9979,236.478 98.1646,226.478 97,216.5C 96.3333,206.167 96.3333,195.833 97,185.5C 99.9284,176.408 105.762,170.075 114.5,166.5 Z"/></g>
<g><path style="opacity:1" fill="#df1611" d="M 199.5,187.5 C 200.024,207.496 200.357,227.496 200.5,247.5C 184.167,247.5 167.833,247.5 151.5,247.5C 149.701,227.251 148.367,206.918 147.5,186.5C 150.027,180.644 153.694,175.478 158.5,171C 177.964,162.318 191.631,167.818 199.5,187.5 Z"/></g>
<g><path style="opacity:1" fill="#dcdac6" d="M 222.5,166.5 C 238.479,166.819 247.479,174.819 249.5,190.5C 249.5,212.5 249.5,234.5 249.5,256.5C 244.595,255.118 240.595,252.285 237.5,248C 225.505,247.5 213.505,247.333 201.5,247.5C 210.652,246.506 219.985,246.173 229.5,246.5C 227.166,219.83 224.833,193.163 222.5,166.5 Z"/></g>
<g><path style="opacity:1" fill="#dddac6" d="M 352.5,186.5 C 351.411,206.496 350.411,226.496 349.5,246.5C 349.5,246.833 349.5,247.167 349.5,247.5C 332.5,247.5 315.5,247.5 298.5,247.5C 299.355,227.16 300.355,206.826 301.5,186.5C 304.651,176.517 311.318,170.017 321.5,167C 337.031,165.424 347.364,171.924 352.5,186.5 Z"/></g>
<g><path style="opacity:1" fill="#ec3326" d="M 379.5,166.5 C 391.222,167.385 399.055,173.385 403,184.5C 404.821,204.283 403.988,223.95 400.5,243.5C 399.596,244.209 399.263,245.209 399.5,246.5C 382.833,246.5 366.167,246.5 349.5,246.5C 350.411,226.496 351.411,206.496 352.5,186.5C 356.938,173.735 365.938,167.068 379.5,166.5 Z"/></g>
<g><path style="opacity:1" fill="#cec9a7" d="M 222.5,166.5 C 224.833,193.163 227.166,219.83 229.5,246.5C 219.985,246.173 210.652,246.506 201.5,247.5C 201.167,247.5 200.833,247.5 200.5,247.5C 200.357,227.496 200.024,207.496 199.5,187.5C 202.37,175.298 210.037,168.298 222.5,166.5 Z"/></g>
<g><path style="opacity:1" fill="#ec3225" d="M 301.5,186.5 C 300.355,206.826 299.355,227.16 298.5,247.5C 286.829,247.333 275.162,247.5 263.5,248C 260.434,252.244 256.434,255.078 251.5,256.5C 250.503,234.673 250.169,212.673 250.5,190.5C 251.316,183.038 254.649,176.872 260.5,172C 279.216,162.921 292.883,167.754 301.5,186.5 Z"/></g>
<g><path style="opacity:1" fill="#e95c52" d="M 400.5,243.5 C 400.5,244.5 400.5,245.5 400.5,246.5C 383.675,247.497 366.675,247.83 349.5,247.5C 349.5,247.167 349.5,246.833 349.5,246.5C 366.167,246.5 382.833,246.5 399.5,246.5C 399.263,245.209 399.596,244.209 400.5,243.5 Z"/></g>
<g><path style="opacity:0.99" fill="#dddcdc" d="M 400.5,246.5 C 410.506,246.334 420.506,246.5 430.5,247C 436.159,247.996 439.993,251.162 442,256.5C 443.632,290.461 443.965,324.461 443,358.5C 442.25,365.178 438.75,369.678 432.5,372C 417.837,372.5 403.17,372.667 388.5,372.5C 372.5,372.5 356.5,372.5 340.5,372.5C 323.833,372.5 307.167,372.5 290.5,372.5C 281.833,372.5 273.167,372.5 264.5,372.5C 262.643,365.427 260.476,358.427 258,351.5C 256.945,348.944 255.112,347.277 252.5,346.5C 250.172,316.651 249.838,286.651 251.5,256.5C 256.434,255.078 260.434,252.244 263.5,248C 275.162,247.5 286.829,247.333 298.5,247.5C 315.5,247.5 332.5,247.5 349.5,247.5C 366.675,247.83 383.675,247.497 400.5,246.5 Z"/></g>
<g><path style="opacity:1" fill="#cbcac5" d="M 249.5,190.5 C 249.833,190.5 250.167,190.5 250.5,190.5C 250.169,212.673 250.503,234.673 251.5,256.5C 249.838,286.651 250.172,316.651 252.5,346.5C 251.5,346.5 250.5,346.5 249.5,346.5C 247.097,346.393 245.264,347.393 244,349.5C 242.544,352.076 241.377,354.742 240.5,357.5C 239.263,362.476 237.596,367.309 235.5,372C 225.506,372.5 215.506,372.666 205.5,372.5C 189.833,372.5 174.167,372.5 158.5,372.5C 143.167,372.5 127.833,372.5 112.5,372.5C 97.4963,372.667 82.4963,372.5 67.5,372C 62.5723,370.073 59.4056,366.573 58,361.5C 57.02,326.106 57.3533,290.773 59,255.5C 61.4294,250.734 65.2627,247.9 70.5,247C 80.1609,246.5 89.8276,246.334 99.5,246.5C 116.756,247.485 134.09,247.819 151.5,247.5C 167.833,247.5 184.167,247.5 200.5,247.5C 200.833,247.5 201.167,247.5 201.5,247.5C 213.505,247.333 225.505,247.5 237.5,248C 240.595,252.285 244.595,255.118 249.5,256.5C 249.5,234.5 249.5,212.5 249.5,190.5 Z"/></g>
<g><path style="opacity:1" fill="#00818e" d="M 204.5,346.5 C 202.585,314.079 185.585,294.912 153.5,289C 132.169,288.5 110.836,288.333 89.5,288.5C 89.5,285.5 89.5,282.5 89.5,279.5C 90.2775,276.888 91.9441,275.055 94.5,274C 134.917,273.012 175.251,273.345 215.5,275C 217.049,276.214 218.215,277.714 219,279.5C 219.667,299.833 219.667,320.167 219,340.5C 215.568,345.627 210.734,347.627 204.5,346.5 Z"/></g>
<g><path style="opacity:1" fill="#e01310" d="M 397.5,346.5 C 395.259,315.427 378.926,296.594 348.5,290C 325.761,289.823 303.094,289.323 280.5,288.5C 279.679,282.456 281.679,277.623 286.5,274C 326.167,273.333 365.833,273.333 405.5,274C 409.205,275.699 411.372,278.533 412,282.5C 412.667,300.833 412.667,319.167 412,337.5C 409.742,344.39 404.909,347.39 397.5,346.5 Z"/></g>
<g><path style="opacity:1" fill="#148ca0" d="M 89.5,279.5 C 89.5,282.5 89.5,285.5 89.5,288.5C 110.836,288.333 132.169,288.5 153.5,289C 185.585,294.912 202.585,314.079 204.5,346.5C 167.414,346.987 130.414,346.487 93.5,345C 91.6217,343.457 90.1217,341.624 89,339.5C 88.1709,319.329 88.3375,299.329 89.5,279.5 Z"/></g>
<g><path style="opacity:1" fill="#ec3325" d="M 280.5,288.5 C 303.094,289.323 325.761,289.823 348.5,290C 378.926,296.594 395.259,315.427 397.5,346.5C 361.165,346.667 324.832,346.5 288.5,346C 284.23,344.73 281.73,341.896 281,337.5C 280.5,321.17 280.333,304.837 280.5,288.5 Z"/></g>
<g><path style="opacity:1" fill="#dcdac6" d="M 249.5,346.5 C 249.5,369.833 249.5,393.167 249.5,416.5C 247.672,413.865 246.505,410.865 246,407.5C 244.351,390.663 242.518,373.996 240.5,357.5C 241.377,354.742 242.544,352.076 244,349.5C 245.264,347.393 247.097,346.393 249.5,346.5 Z"/></g>
<g><path style="opacity:1" fill="#ec3426" d="M 249.5,346.5 C 250.5,346.5 251.5,346.5 252.5,346.5C 255.112,347.277 256.945,348.944 258,351.5C 260.476,358.427 262.643,365.427 264.5,372.5C 273.167,372.5 281.833,372.5 290.5,372.5C 289.951,390.505 289.284,408.505 288.5,426.5C 288.737,427.791 288.404,428.791 287.5,429.5C 287.5,428.5 287.5,427.5 287.5,426.5C 278.827,426.666 270.16,426.5 261.5,426C 257.208,424.604 253.708,422.104 251,418.5C 250.5,440.831 250.333,463.164 250.5,485.5C 261.833,485.5 273.167,485.5 284.5,485.5C 272.833,486.833 261.167,486.833 249.5,485.5C 249.5,462.5 249.5,439.5 249.5,416.5C 249.5,393.167 249.5,369.833 249.5,346.5 Z"/></g>
<g><path style="opacity:1" fill="#cec8a6" d="M 240.5,357.5 C 242.518,373.996 244.351,390.663 246,407.5C 246.505,410.865 247.672,413.865 249.5,416.5C 249.5,439.5 249.5,462.5 249.5,485.5C 235.833,485.5 222.167,485.5 208.5,485.5C 208.813,481.958 208.479,478.625 207.5,475.5C 206.688,441.17 206.021,406.836 205.5,372.5C 215.506,372.666 225.506,372.5 235.5,372C 237.596,367.309 239.263,362.476 240.5,357.5 Z"/></g>
<g><path style="opacity:1" fill="#cec8a6" d="M 112.5,372.5 C 127.833,372.5 143.167,372.5 158.5,372.5C 160.529,409.166 162.529,445.833 164.5,482.5C 164.5,483.5 164.5,484.5 164.5,485.5C 154.767,485.891 145.1,485.391 135.5,484C 125.422,479.019 120.588,470.853 121,459.5C 118.166,430.493 115.333,401.493 112.5,372.5 Z"/></g>
<g><path style="opacity:1" fill="#df110f" d="M 158.5,372.5 C 174.167,372.5 189.833,372.5 205.5,372.5C 206.021,406.836 206.688,441.17 207.5,475.5C 207.5,478.5 207.5,481.5 207.5,484.5C 192.923,485.123 178.589,484.456 164.5,482.5C 162.529,445.833 160.529,409.166 158.5,372.5 Z"/></g>
<g><path style="opacity:1" fill="#dddac6" d="M 290.5,372.5 C 307.167,372.5 323.833,372.5 340.5,372.5C 339.323,390.49 338.323,408.49 337.5,426.5C 337.167,426.5 336.833,426.5 336.5,426.5C 320.5,426.5 304.5,426.5 288.5,426.5C 289.284,408.505 289.951,390.505 290.5,372.5 Z"/></g>
<g><path style="opacity:1" fill="#ec3426" d="M 340.5,372.5 C 356.5,372.5 372.5,372.5 388.5,372.5C 386.768,389.491 385.101,406.491 383.5,423.5C 370.098,411.103 357.098,411.603 344.5,425C 342.238,425.642 340.071,426.475 338,427.5C 337.601,427.272 337.435,426.938 337.5,426.5C 338.323,408.49 339.323,390.49 340.5,372.5 Z"/></g>
<g><path style="opacity:1" fill="#efb95b" d="M 383.5,423.5 C 386.488,426.481 388.154,430.148 388.5,434.5C 382.82,435.513 378.153,438.347 374.5,443C 360.027,447.832 354.361,457.332 357.5,471.5C 349.02,473.463 341.353,471.796 334.5,466.5C 326.559,458.616 324.393,449.282 328,438.5C 330.689,434.325 333.523,430.325 336.5,426.5C 336.833,426.5 337.167,426.5 337.5,426.5C 337.435,426.938 337.601,427.272 338,427.5C 340.071,426.475 342.238,425.642 344.5,425C 357.098,411.603 370.098,411.103 383.5,423.5 Z"/></g>
<g><path style="opacity:1" fill="#efba5b" d="M 76.5,437.5 C 70.6123,439.287 65.9456,442.787 62.5,448C 40.0207,445.644 29.3541,455.811 30.5,478.5C 15.5927,481.88 5.25941,476.547 -0.5,462.5C -0.5,457.833 -0.5,453.167 -0.5,448.5C 5.22864,434.468 15.562,429.134 30.5,432.5C 41.0332,419.027 53.6998,416.527 68.5,425C 72.5605,428.291 75.2272,432.457 76.5,437.5 Z"/></g>
<g><path style="opacity:1" fill="#e00f0e" d="M 287.5,429.5 C 286.795,448.184 285.795,466.851 284.5,485.5C 273.167,485.5 261.833,485.5 250.5,485.5C 250.333,463.164 250.5,440.831 251,418.5C 253.708,422.104 257.208,424.604 261.5,426C 270.16,426.5 278.827,426.666 287.5,426.5C 287.5,427.5 287.5,428.5 287.5,429.5 Z"/></g>
<g><path style="opacity:0.999" fill="#efba5b" d="M 477.5,426.5 C 474.291,429.228 471.791,432.561 470,436.5C 469.036,444.851 467.536,453.018 465.5,461C 465.331,468.485 467.997,474.652 473.5,479.5C 464.027,486.886 454.027,487.386 443.5,481C 437.237,475.807 433.903,469.14 433.5,461C 436.404,452.407 438.238,443.573 439,434.5C 445.687,422.241 455.854,417.741 469.5,421C 472.756,422.116 475.422,423.949 477.5,426.5 Z"/></g>
<g><path style="opacity:0.969" fill="#fcda86" d="M 511.5,443.5 C 511.5,447.833 511.5,452.167 511.5,456.5C 505.521,470.74 495.021,476.073 480,472.5C 478.334,475.331 476.168,477.664 473.5,479.5C 467.997,474.652 465.331,468.485 465.5,461C 467.536,453.018 469.036,444.851 470,436.5C 471.791,432.561 474.291,429.228 477.5,426.5C 493.89,422.694 505.224,428.361 511.5,443.5 Z"/></g>
<g><path style="opacity:1" fill="#cec8a6" d="M 288.5,426.5 C 304.5,426.5 320.5,426.5 336.5,426.5C 333.523,430.325 330.689,434.325 328,438.5C 324.393,449.282 326.559,458.616 334.5,466.5C 333.68,472.797 333.347,479.131 333.5,485.5C 317.167,485.5 300.833,485.5 284.5,485.5C 285.795,466.851 286.795,448.184 287.5,429.5C 288.404,428.791 288.737,427.791 288.5,426.5 Z"/></g>
<g><path style="opacity:0.972" fill="#fcda86" d="M 388.5,434.5 C 388.343,435.873 388.51,437.207 389,438.5C 403.938,447.653 407.271,459.986 399,475.5C 390.224,485.818 379.724,488.152 367.5,482.5C 363.456,479.457 360.123,475.791 357.5,471.5C 354.361,457.332 360.027,447.832 374.5,443C 378.153,438.347 382.82,435.513 388.5,434.5 Z"/></g>
<g><path style="opacity:0.966" fill="#fcda86" d="M 76.5,437.5 C 78.2094,444.157 77.3761,450.491 74,456.5C 73.5767,478.791 62.41,487.958 40.5,484C 37.2595,481.909 33.9262,480.076 30.5,478.5C 29.3541,455.811 40.0207,445.644 62.5,448C 65.9456,442.787 70.6123,439.287 76.5,437.5 Z"/></g>
<g><path style="opacity:1" fill="#e01a13" d="M 334.5,466.5 C 341.353,471.796 349.02,473.463 357.5,471.5C 360.123,475.791 363.456,479.457 367.5,482.5C 365.852,483.927 363.852,484.76 361.5,485C 352.173,485.5 342.839,485.666 333.5,485.5C 333.347,479.131 333.68,472.797 334.5,466.5 Z"/></g>
<g><path style="opacity:0.933" fill="#da574b" d="M 207.5,475.5 C 208.479,478.625 208.813,481.958 208.5,485.5C 193.833,485.5 179.167,485.5 164.5,485.5C 164.5,484.5 164.5,483.5 164.5,482.5C 178.589,484.456 192.923,485.123 207.5,484.5C 207.5,481.5 207.5,478.5 207.5,475.5 Z"/></g>
</svg>
